<svg width="300" height="33" viewBox="0 0 300 33" fill="none" xmlns="http://www.w3.org/2000/svg">
<path d="M202.595 28.0854H190.715V11.2854H202.595V13.4934H193.115V18.2934H200.123V20.4774H193.115V25.8774H202.595V28.0854ZM209.832 28.4214C207.336 28.4214 205.104 27.2694 204.6 25.0134L206.736 24.3174C207.048 25.5414 207.912 26.5734 209.856 26.5734C211.512 26.5734 212.4 25.9734 212.4 24.9174C212.4 24.0774 211.896 23.4774 210.264 23.1654L208.824 22.9014C206.784 22.4934 205.08 21.7254 205.08 19.4454C205.08 17.3094 207.096 15.8454 209.568 15.8454C212.52 15.8454 213.936 17.3574 214.416 18.8694L212.424 19.6374C212.136 18.8214 211.416 17.6454 209.544 17.6454C207.96 17.6454 207.24 18.3894 207.24 19.2294C207.24 19.9974 207.6 20.4534 209.256 20.7654L210.672 21.0294C212.04 21.3174 214.68 22.0854 214.68 24.7254C214.68 26.9814 212.904 28.4214 209.832 28.4214ZM219.89 32.7654H217.634V16.1814H219.818V17.9814C220.394 16.9974 221.594 15.8454 223.682 15.8454C226.49 15.8454 228.554 18.2214 228.554 22.1334C228.554 26.0214 226.49 28.4214 223.682 28.4214C221.594 28.4214 220.466 27.2694 219.89 26.2854V28.5654V32.7654ZM223.034 26.5014C224.882 26.5014 226.226 25.3254 226.226 22.1094C226.226 18.8694 224.882 17.7654 223.034 17.7654C221.138 17.7654 219.77 19.1814 219.77 22.1094C219.77 25.0374 221.138 26.5014 223.034 26.5014ZM236.354 28.4214C233.138 28.4214 230.69 25.7334 230.69 22.1574C230.69 18.5334 233.066 15.8454 236.354 15.8454C239.642 15.8454 241.994 18.5334 241.994 22.1574C241.994 25.7814 239.546 28.4214 236.354 28.4214ZM236.354 26.4774C238.298 26.4774 239.642 25.0854 239.642 22.1814C239.642 19.2534 238.298 17.7894 236.354 17.7894C234.386 17.7894 233.042 19.2534 233.042 22.1814C233.042 25.0854 234.386 26.4774 236.354 26.4774ZM247.242 28.0854H244.986V16.1814H247.194V18.7014C247.602 17.7894 248.778 16.0134 251.154 16.0134C251.658 16.0134 251.994 16.0614 252.258 16.1334V18.4374C251.874 18.3894 251.466 18.3414 250.986 18.3414C248.346 18.3414 247.242 19.9254 247.242 22.7334V28.0854ZM261.699 28.0854H258.771C256.803 28.0854 255.771 27.1254 255.771 25.1574V18.0534H253.059V16.1814H255.771V12.4614H258.027V16.1814H261.243V18.0534H258.027V24.9654C258.027 25.7814 258.387 26.1414 259.203 26.1414H261.699V28.0854ZM268.355 28.4214C265.859 28.4214 263.627 27.2694 263.123 25.0134L265.259 24.3174C265.571 25.5414 266.435 26.5734 268.379 26.5734C270.035 26.5734 270.923 25.9734 270.923 24.9174C270.923 24.0774 270.419 23.4774 268.787 23.1654L267.347 22.9014C265.307 22.4934 263.603 21.7254 263.603 19.4454C263.603 17.3094 265.619 15.8454 268.091 15.8454C271.043 15.8454 272.459 17.3574 272.939 18.8694L270.947 19.6374C270.659 18.8214 269.939 17.6454 268.067 17.6454C266.483 17.6454 265.763 18.3894 265.763 19.2294C265.763 19.9974 266.123 20.4534 267.779 20.7654L269.195 21.0294C270.563 21.3174 273.203 22.0854 273.203 24.7254C273.203 26.9814 271.427 28.4214 268.355 28.4214Z" fill="white"/>
<path d="M7.30628 12.0869C7.30628 12.0869 16.0504 12.9685 16.7197 1C16.7197 1 16.6348 10.8824 25.5595 12.0533C25.5595 12.0533 17.3147 12.5176 16.9854 22.9081C16.9747 22.9182 17.0456 13.0964 7.30273 12.0869H7.30628Z" fill="#F0FF27" stroke="black" stroke-linejoin="round"/>
<g clip-path="url(#clip0_672_35)">
<path d="M32.8623 22.5105L52.7251 12.5885V11.6969H32.8623V4.64648H65.1232V15.2221L45.3004 25.0634V25.9535H65.2046V33.004H32.8623V22.5105Z" fill="white"/>
<path d="M90.1887 19.2708V18.2984C95.6518 18.2984 99.2835 16.0187 99.2835 12.0323C99.2835 6.78706 95.4447 4.65283 88.557 4.65283H67.3066V33.0015H88.557C95.9802 33.0015 99.2835 30.337 99.2835 26.1611C99.2835 21.8221 96.6341 19.2708 90.1887 19.2708ZM84.5185 26.5606H78.1145V21.8221H84.5185C86.5895 21.8221 87.6591 22.7563 87.6591 24.1723C87.6591 26.0039 86.412 26.5606 84.5185 26.5606V26.5606ZM84.5185 15.7881H78.1145V11.0878H84.5185C86.1798 11.0878 87.6591 11.4991 87.6591 13.4761C87.6591 15.3592 85.9549 15.7881 84.5185 15.7881V15.7881Z" fill="white"/>
<path d="M100.785 4.65137H120.322C132.185 4.65137 137.533 10.4812 137.533 18.8257C137.533 27.5903 131.105 33 120.322 33H100.785V4.65137ZM125.991 18.8257C125.991 13.8213 122.494 11.9412 119.098 11.9412H112.083V25.7101H119.098C122.453 25.7101 125.991 23.83 125.991 18.8257V18.8257Z" fill="white"/>
</g>
<path d="M5.01957 22.9082L6.15074 25.1384C6.50423 25.8463 7.06982 26.4127 7.81215 26.8021L10.0391 27.9349L7.81215 29.0677C7.10517 29.4217 6.53958 29.988 6.15074 30.7314L5.01957 32.9616L3.8884 30.7314C3.53491 30.0234 2.96932 29.4571 2.22699 29.0677L0 27.9349L2.22699 26.8021C2.93397 26.4481 3.49956 25.8817 3.8884 25.1384L5.01957 22.9082Z" fill="#916EF7"/>
<line x1="140.783" y1="32.3478" x2="161.474" y2="4.35416" stroke="#F0FF27"/>
<defs>
<clipPath id="clip0_672_35">
<rect width="104.672" height="28.3487" fill="white" transform="translate(32.8623 4.65137)"/>
</clipPath>
</defs>
</svg>
